<svg xmlns="http://www.w3.org/2000/svg"  viewBox="0 0 100 100" width="50px" height="50px" baseProfile="basic"><path fill="#fce0a2" d="M50,13c-20.435,0-37,16.565-37,37s16.565,37,37,37s37-16.565,37-37S70.435,13,50,13z"/><path fill="#ee3e54" d="M13,27c-1.105,0-2,0.895-2,2s0.895,2,2,2s2-0.895,2-2S14.105,27,13,27z"/><path fill="#f1bc19" d="M77,12c-0.552,0-1,0.448-1,1s0.448,1,1,1s1-0.448,1-1S77.552,12,77,12z"/><path fill="#f1bc19" d="M83,11c-2.209,0-4,1.791-4,4s1.791,4,4,4s4-1.791,4-4S85.209,11,83,11z"/><path fill="#ee3e54" d="M87,22c-1.105,0-2,0.895-2,2s0.895,2,2,2s2-0.895,2-2S88.105,22,87,22z"/><path fill="#fbcd59" d="M81,74c-1.105,0-2,0.895-2,2s0.895,2,2,2s2-0.895,2-2S82.105,74,81,74z M15,59 c-2.209,0-4,1.791-4,4c0,2.209,1.791,4,4,4s4-1.791,4-4C19,60.791,17.209,59,15,59z"/><path fill="#ee3e54" d="M25,85c-1.105,0-2,0.895-2,2s0.895,2,2,2s2-0.895,2-2S26.105,85,25,85z"/><path fill="#fff" d="M18.5,51c-1.381,0-2.5,1.119-2.5,2.5s1.119,2.5,2.5,2.5s2.5-1.119,2.5-2.5S19.881,51,18.5,51z"/><path fill="#f1bc19" d="M21,66c-0.552,0-1,0.448-1,1s0.448,1,1,1s1-0.448,1-1S21.552,66,21,66z"/><path fill="#ef9922" d="M35,72.3c-4.025,0-7.3-3.274-7.3-7.3V35c0-4.025,3.274-7.3,7.3-7.3h30c4.025,0,7.3,3.274,7.3,7.3 v30c0,4.025-3.274,7.3-7.3,7.3H35z"/><path fill="#472b29" d="M65,28.4c3.639,0,6.6,2.961,6.6,6.6v30c0,3.639-2.961,6.6-6.6,6.6H35c-3.639,0-6.6-2.961-6.6-6.6 V35c0-3.639,2.961-6.6,6.6-6.6H65 M65,27H35c-4.4,0-8,3.6-8,8v30c0,4.4,3.6,8,8,8h30c4.4,0,8-3.6,8-8V35C73,30.6,69.4,27,65,27 L65,27z"/><path fill="#ee4267" d="M41.244,45.732c-0.697-0.139-1.378,0.323-1.513,1.025l-0.478,2.484l-1.806-2.736 c-0.289-0.437-0.814-0.661-1.328-0.556c-0.515,0.102-0.917,0.505-1.018,1.019l-1.077,5.492c-0.138,0.701,0.319,1.38,1.019,1.517 C35.128,53.993,35.212,54,35.294,54c0.605,0,1.146-0.427,1.266-1.043l0.469-2.394l1.815,2.75 c0.289,0.438,0.815,0.658,1.331,0.555c0.516-0.103,0.917-0.507,1.016-1.023l1.077-5.6C42.404,46.543,41.945,45.866,41.244,45.732 z"/><path fill="#ee4267" d="M61.286,46.383c-0.638-0.317-1.414-0.06-1.734,0.578l-1.189,2.378l-0.737-2.209 c-0.156-0.468-0.565-0.807-1.054-0.872c-0.492-0.072-0.973,0.153-1.247,0.564l-1.633,2.45l-0.325-1.946 c-0.117-0.704-0.782-1.18-1.487-1.062c-0.703,0.117-1.18,0.783-1.062,1.487l0.862,5.169c0.087,0.522,0.485,0.94,1.004,1.051 C52.773,53.991,52.864,54,52.954,54c0.427,0,0.832-0.211,1.075-0.575l1.981-2.971l0.888,2.663 c0.165,0.496,0.612,0.843,1.134,0.88c0.533,0.045,1.014-0.243,1.248-0.711l2.585-5.169 C62.183,47.478,61.924,46.702,61.286,46.383z"/><circle cx="46.492" cy="49.693" r="3.877" fill="#ee4267"/><path fill="#472b29" d="M35.294,54.5c-0.113,0-0.229-0.011-0.347-0.034c-0.47-0.092-0.875-0.36-1.143-0.758 c-0.267-0.397-0.363-0.875-0.271-1.346l1.077-5.492c0.14-0.716,0.693-1.271,1.41-1.413c0.714-0.145,1.438,0.159,1.844,0.771 l1.13,1.712l0.245-1.278c0.091-0.473,0.361-0.881,0.761-1.149c0.397-0.267,0.875-0.364,1.34-0.271 c0.47,0.091,0.876,0.358,1.144,0.755c0.269,0.396,0.366,0.873,0.275,1.343l-1.076,5.6c-0.139,0.72-0.692,1.276-1.41,1.419 c-0.718,0.141-1.443-0.159-1.846-0.771l-1.142-1.729l-0.235,1.196C36.888,53.892,36.148,54.5,35.294,54.5z M36.373,46.422 c-0.051,0-0.103,0.005-0.154,0.016c-0.319,0.063-0.564,0.309-0.627,0.625l-1.077,5.493c-0.04,0.208,0.002,0.419,0.12,0.595 c0.118,0.175,0.297,0.294,0.504,0.335c0.446,0.082,0.85-0.204,0.931-0.624l0.471-2.396c0.039-0.199,0.194-0.354,0.394-0.394 c0.199-0.04,0.401,0.047,0.514,0.215l1.814,2.749c0.179,0.271,0.502,0.401,0.816,0.341c0.317-0.063,0.562-0.31,0.623-0.628 l1.076-5.6c0.04-0.208-0.003-0.418-0.121-0.593c-0.118-0.176-0.298-0.294-0.507-0.334c-0.001,0-0.002-0.001-0.003-0.001 c-0.208-0.04-0.412,0.002-0.587,0.119c-0.177,0.119-0.297,0.301-0.337,0.51l-0.478,2.484c-0.039,0.199-0.194,0.355-0.394,0.396 c-0.197,0.044-0.402-0.046-0.515-0.215l-1.806-2.736C36.881,46.553,36.634,46.422,36.373,46.422z"/><path fill="#472b29" d="M58.139,54.502c-0.05,0-0.1-0.002-0.149-0.007c-0.719-0.051-1.336-0.53-1.566-1.22l-0.564-1.693 l-1.413,2.12c-0.405,0.606-1.173,0.9-1.868,0.759c-0.724-0.155-1.27-0.728-1.391-1.458l-0.862-5.169 c-0.162-0.976,0.499-1.901,1.474-2.063c0.467-0.08,0.945,0.03,1.336,0.309c0.39,0.278,0.647,0.692,0.727,1.165l0.116,0.698 l0.933-1.397c0.381-0.572,1.064-0.877,1.734-0.782c0.669,0.09,1.243,0.564,1.457,1.21l0.354,1.063l0.649-1.299 c0.441-0.883,1.521-1.244,2.404-0.802h0.001c0.884,0.442,1.243,1.521,0.801,2.405l-2.584,5.169 C59.419,54.124,58.807,54.502,58.139,54.502z M56.01,49.954c0.021,0,0.044,0.001,0.066,0.005c0.189,0.024,0.348,0.156,0.408,0.337 l0.888,2.663c0.102,0.305,0.374,0.517,0.694,0.539c0.335,0.024,0.617-0.141,0.766-0.436l2.584-5.169 c0.195-0.391,0.037-0.868-0.353-1.063c-0.394-0.195-0.869-0.036-1.064,0.354l-1.188,2.378c-0.09,0.181-0.281,0.298-0.482,0.275 c-0.202-0.015-0.375-0.148-0.439-0.341l-0.737-2.209c-0.095-0.285-0.348-0.495-0.646-0.535c-0.306-0.042-0.593,0.09-0.764,0.347 l-1.634,2.449c-0.113,0.171-0.32,0.249-0.521,0.212c-0.2-0.044-0.354-0.205-0.388-0.407l-0.324-1.945 c-0.035-0.209-0.149-0.393-0.321-0.516s-0.383-0.173-0.59-0.136c-0.432,0.071-0.724,0.481-0.652,0.913l0.862,5.169 c0.054,0.322,0.295,0.575,0.614,0.644c0.302,0.066,0.647-0.066,0.826-0.335l1.98-2.971C55.688,50.036,55.844,49.954,56.01,49.954z"/><path fill="#472b29" d="M70.116,45.746c-0.223-0.101-0.482-0.002-0.583,0.22l-1.118,2.477l-1.045-2.571 c-0.067-0.166-0.229-0.274-0.408-0.274H63.44c-0.243,0-0.44,0.197-0.44,0.44s0.197,0.44,0.44,0.44h1.321v3.082 c0,0.243,0.197,0.44,0.44,0.44s0.44-0.197,0.44-0.44v-3.082h1.024l1.32,3.248c0.066,0.163,0.223,0.271,0.399,0.274 c0.003,0,0.006,0,0.009,0c0.173,0,0.33-0.101,0.402-0.259l1.541-3.412C70.436,46.107,70.337,45.846,70.116,45.746z"/><g><path fill="#472b29" d="M46.492,54.069c-2.413,0-4.377-1.964-4.377-4.377s1.964-4.377,4.377-4.377s4.377,1.964,4.377,4.377 S48.905,54.069,46.492,54.069z M46.492,46.315c-1.862,0-3.377,1.515-3.377,3.377s1.515,3.377,3.377,3.377s3.377-1.515,3.377-3.377 S48.354,46.315,46.492,46.315z"/></g><g><path fill="#472b29" d="M64,69H36c-2.8,0-5-2.2-5-5V36c0-2.8,2.2-5,5-5h25.4c0.3,0,0.5,0.2,0.5,0.5S61.7,32,61.4,32H36 c-2.2,0-4,1.8-4,4v28c0,2.2,1.8,4,4,4h28c2.2,0,4-1.8,4-4V52.6c0-0.3,0.2-0.5,0.5-0.5s0.5,0.2,0.5,0.5V64C69,66.8,66.8,69,64,69z"/></g></svg>